<svg xmlns="http://www.w3.org/2000/svg" width="900" height="290" viewBox="0 0 900 290" font-family="'Hiragino Sans','Noto Sans JP','Yu Gothic','Segoe UI',sans-serif">
<defs><marker id="aR" viewBox="0 0 10 10" refX="8" refY="5" markerWidth="7" markerHeight="7" orient="auto-start-reverse"><path d="M0 1 L9 5 L0 9 z" fill="#475569"/></marker><marker id="aRsub" viewBox="0 0 10 10" refX="8" refY="5" markerWidth="7" markerHeight="7" orient="auto-start-reverse"><path d="M0 1 L9 5 L0 9 z" fill="#94a3b8"/></marker></defs>
<rect x="0" y="0" width="900" height="290" fill="#ffffff"/>
<text x="450" y="52" text-anchor="middle" font-size="26" fill="#0f172a" font-weight="700">つながらないときに何が起きているか</text>
<svg x="110" y="122" width="80" height="80" viewBox="0 0 36 36"><path fill="#3B88C3" d="M18 0C8.059 0 0 8.059 0 18s8.059 18 18 18 18-8.059 18-18S27.941 0 18 0zM2.05 19h3.983c.092 2.506.522 4.871 1.229 7H4.158c-1.207-2.083-1.95-4.459-2.108-7zM19 8V2.081c2.747.436 5.162 2.655 6.799 5.919H19zm7.651 2c.754 2.083 1.219 4.46 1.317 7H19v-7h7.651zM17 2.081V8h-6.799C11.837 4.736 14.253 2.517 17 2.081zM17 10v7H8.032c.098-2.54.563-4.917 1.317-7H17zM6.034 17H2.05c.158-2.54.901-4.917 2.107-7h3.104c-.705 2.129-1.135 4.495-1.227 7zm1.998 2H17v7H9.349c-.754-2.083-1.219-4.459-1.317-7zM17 28v5.919c-2.747-.437-5.163-2.655-6.799-5.919H17zm2 5.919V28h6.8c-1.637 3.264-4.053 5.482-6.8 5.919zM19 26v-7h8.969c-.099 2.541-.563 4.917-1.317 7H19zm10.967-7h3.982c-.157 2.541-.9 4.917-2.107 7h-3.104c.706-2.129 1.136-4.494 1.229-7zm0-2c-.093-2.505-.523-4.871-1.229-7h3.104c1.207 2.083 1.95 4.46 2.107 7h-3.982zm.512-9h-2.503c-.717-1.604-1.606-3.015-2.619-4.199C27.346 4.833 29.089 6.267 30.479 8zM10.643 3.801C9.629 4.985 8.74 6.396 8.023 8H5.521c1.39-1.733 3.133-3.166 5.122-4.199zM5.521 28h2.503c.716 1.604 1.605 3.015 2.619 4.198C8.654 31.166 6.911 29.733 5.521 28zm19.836 4.198c1.014-1.184 1.902-2.594 2.619-4.198h2.503c-1.39 1.733-3.133 3.166-5.122 4.198z"/></svg>
<text x="150" y="222" text-anchor="middle" font-size="21" fill="#0f172a" font-weight="700">ブラウザ A</text>
<svg x="710" y="122" width="80" height="80" viewBox="0 0 36 36"><path fill="#3B88C3" d="M18 0C8.059 0 0 8.059 0 18s8.059 18 18 18 18-8.059 18-18S27.941 0 18 0zM2.05 19h3.983c.092 2.506.522 4.871 1.229 7H4.158c-1.207-2.083-1.95-4.459-2.108-7zM19 8V2.081c2.747.436 5.162 2.655 6.799 5.919H19zm7.651 2c.754 2.083 1.219 4.46 1.317 7H19v-7h7.651zM17 2.081V8h-6.799C11.837 4.736 14.253 2.517 17 2.081zM17 10v7H8.032c.098-2.54.563-4.917 1.317-7H17zM6.034 17H2.05c.158-2.54.901-4.917 2.107-7h3.104c-.705 2.129-1.135 4.495-1.227 7zm1.998 2H17v7H9.349c-.754-2.083-1.219-4.459-1.317-7zM17 28v5.919c-2.747-.437-5.163-2.655-6.799-5.919H17zm2 5.919V28h6.8c-1.637 3.264-4.053 5.482-6.8 5.919zM19 26v-7h8.969c-.099 2.541-.563 4.917-1.317 7H19zm10.967-7h3.982c-.157 2.541-.9 4.917-2.107 7h-3.104c.706-2.129 1.136-4.494 1.229-7zm0-2c-.093-2.505-.523-4.871-1.229-7h3.104c1.207 2.083 1.95 4.46 2.107 7h-3.982zm.512-9h-2.503c-.717-1.604-1.606-3.015-2.619-4.199C27.346 4.833 29.089 6.267 30.479 8zM10.643 3.801C9.629 4.985 8.74 6.396 8.023 8H5.521c1.39-1.733 3.133-3.166 5.122-4.199zM5.521 28h2.503c.716 1.604 1.605 3.015 2.619 4.198C8.654 31.166 6.911 29.733 5.521 28zm19.836 4.198c1.014-1.184 1.902-2.594 2.619-4.198h2.503c-1.39 1.733-3.133 3.166-5.122 4.198z"/></svg>
<text x="750" y="222" text-anchor="middle" font-size="21" fill="#0f172a" font-weight="700">ブラウザ B</text>
<svg x="418" y="132" width="64" height="64" viewBox="0 0 36 36"><path fill="#FFCC4D" d="M36 15c0 2.209-1.791 4-4 4H4c-2.209 0-4-1.791-4-4V7c0-2.209 1.791-4 4-4h28c2.209 0 4 1.791 4 4v8z"/><path d="M6 3H4C1.791 3 0 4.791 0 7v2l6-6zm6 0L0 15c0 1.36.682 2.558 1.72 3.28L17 3h-5zM7 19h5L28 3h-5zm16 0L35.892 6.108c-.281-1.23-1.126-2.24-2.252-2.748L18 19h5zm13-4v-3l-7 7h3c2.209 0 4-1.791 4-4z" fill="#292F33"/><path fill="#99AAB5" d="M4 19h5v14H4zm23 0h5v14h-5z"/></svg>
<text x="450" y="226" text-anchor="middle" font-size="17" fill="#475569" font-weight="600" font-family="'SFMono-Regular','Consolas','Noto Sans Mono','Courier New',monospace">NAT</text>
<line x1="216" y1="158" x2="404" y2="158" stroke="#94a3b8" stroke-width="2.0" stroke-linecap="round" stroke-linejoin="round" stroke-dasharray="7 6" marker-end="url(#aRsub)"/>
<line x1="684" y1="158" x2="496" y2="158" stroke="#94a3b8" stroke-width="2.0" stroke-linecap="round" stroke-linejoin="round" stroke-dasharray="7 6" marker-end="url(#aRsub)"/>
<text x="450" y="268" text-anchor="middle" font-size="13" fill="#475569" font-weight="400">自分の住所が、自分でも分からない</text>
</svg>
