<svg xmlns="http://www.w3.org/2000/svg" width="840" height="390" viewBox="0 0 840 390" font-family="'Hiragino Sans','Noto Sans JP','Yu Gothic','Segoe UI',sans-serif">
<defs><marker id="aR" viewBox="0 0 10 10" refX="9" refY="5" markerWidth="7" markerHeight="7" orient="auto-start-reverse"><path d="M0 1 L9 5 L0 9 z" fill="#475569"/></marker><marker id="aRsub" viewBox="0 0 10 10" refX="9" refY="5" markerWidth="7" markerHeight="7" orient="auto-start-reverse"><path d="M0 1 L9 5 L0 9 z" fill="#94a3b8"/></marker></defs>
<rect x="0" y="0" width="840" height="390" fill="#ffffff"/>
<text x="420" y="46" text-anchor="middle" font-size="26" fill="#0f172a" font-weight="700">何を作ろう？</text>
<svg x="120.0" y="95.3" width="80.0" height="80.0" viewBox="0 0 36 36"><path fill="#DD2E44" d="M11.626 7.488c-.112.112-.197.247-.268.395l-.008-.008L.134 33.141l.011.011c-.208.403.14 1.223.853 1.937.713.713 1.533 1.061 1.936.853l.01.01L28.21 24.735l-.008-.009c.147-.07.282-.155.395-.269 1.562-1.562-.971-6.627-5.656-11.313-4.687-4.686-9.752-7.218-11.315-5.656z"/><path fill="#EA596E" d="M13 12L.416 32.506l-.282.635.011.011c-.208.403.14 1.223.853 1.937.232.232.473.408.709.557L17 17l-4-5z"/><path fill="#A0041E" d="M23.012 13.066c4.67 4.672 7.263 9.652 5.789 11.124-1.473 1.474-6.453-1.118-11.126-5.788-4.671-4.672-7.263-9.654-5.79-11.127 1.474-1.473 6.454 1.119 11.127 5.791z"/><path fill="#AA8DD8" d="M18.59 13.609c-.199.161-.459.245-.734.215-.868-.094-1.598-.396-2.109-.873-.541-.505-.808-1.183-.735-1.862.128-1.192 1.324-2.286 3.363-2.066.793.085 1.147-.17 1.159-.292.014-.121-.277-.446-1.07-.532-.868-.094-1.598-.396-2.11-.873-.541-.505-.809-1.183-.735-1.862.13-1.192 1.325-2.286 3.362-2.065.578.062.883-.057 1.012-.134.103-.063.144-.123.148-.158.012-.121-.275-.446-1.07-.532-.549-.06-.947-.552-.886-1.102.059-.549.55-.946 1.101-.886 2.037.219 2.973 1.542 2.844 2.735-.13 1.194-1.325 2.286-3.364 2.067-.578-.063-.88.057-1.01.134-.103.062-.145.123-.149.157-.013.122.276.446 1.071.532 2.037.22 2.973 1.542 2.844 2.735-.129 1.192-1.324 2.286-3.362 2.065-.578-.062-.882.058-1.012.134-.104.064-.144.124-.148.158-.013.121.276.446 1.07.532.548.06.947.553.886 1.102-.028.274-.167.511-.366.671z"/><path fill="#77B255" d="M30.661 22.857c1.973-.557 3.334.323 3.658 1.478.324 1.154-.378 2.615-2.35 3.17-.77.216-1.001.584-.97.701.034.118.425.312 1.193.095 1.972-.555 3.333.325 3.657 1.479.326 1.155-.378 2.614-2.351 3.17-.769.216-1.001.585-.967.702.033.117.423.311 1.192.095.53-.149 1.084.16 1.233.691.148.532-.161 1.084-.693 1.234-1.971.555-3.333-.323-3.659-1.479-.324-1.154.379-2.613 2.353-3.169.77-.217 1.001-.584.967-.702-.032-.117-.422-.312-1.19-.096-1.974.556-3.334-.322-3.659-1.479-.325-1.154.378-2.613 2.351-3.17.768-.215.999-.585.967-.701-.034-.118-.423-.312-1.192-.096-.532.15-1.083-.16-1.233-.691-.149-.53.161-1.082.693-1.232z"/><path fill="#AA8DD8" d="M23.001 20.16c-.294 0-.584-.129-.782-.375-.345-.432-.274-1.061.156-1.406.218-.175 5.418-4.259 12.767-3.208.547.078.927.584.849 1.131-.078.546-.58.93-1.132.848-6.493-.922-11.187 2.754-11.233 2.791-.186.148-.406.219-.625.219z"/><path fill="#77B255" d="M5.754 16c-.095 0-.192-.014-.288-.042-.529-.159-.829-.716-.67-1.245 1.133-3.773 2.16-9.794.898-11.364-.141-.178-.354-.353-.842-.316-.938.072-.849 2.051-.848 2.071.042.551-.372 1.031-.922 1.072-.559.034-1.031-.372-1.072-.923-.103-1.379.326-4.035 2.692-4.214 1.056-.08 1.933.287 2.552 1.057 2.371 2.951-.036 11.506-.542 13.192-.13.433-.528.712-.958.712z"/><circle fill="#5C913B" cx="25.5" cy="9.5" r="1.5"/><circle fill="#9266CC" cx="2" cy="18" r="2"/><circle fill="#5C913B" cx="32.5" cy="19.5" r="1.5"/><circle fill="#5C913B" cx="23.5" cy="31.5" r="1.5"/><circle fill="#FFCC4D" cx="28" cy="4" r="2"/><circle fill="#FFCC4D" cx="32.5" cy="8.5" r="1.5"/><circle fill="#FFCC4D" cx="29.5" cy="12.5" r="1.5"/><circle fill="#FFCC4D" cx="7.5" cy="23.5" r="1.5"/></svg>
<text x="160" y="202.14" text-anchor="middle" font-size="21" fill="#0f172a" font-weight="700">作る楽しさ</text>
<svg x="120.0" y="225.3" width="80.0" height="80.0" viewBox="0 0 36 36"><path fill="#FFCC4D" d="M20 6.042c0 1.112-.903 2.014-2 2.014s-2-.902-2-2.014V2.014C16 .901 16.903 0 18 0s2 .901 2 2.014v4.028z"/><path fill="#FFAC33" d="M9.18 36c-.224 0-.452-.052-.666-.159-.736-.374-1.035-1.28-.667-2.027l8.94-18.127c.252-.512.768-.835 1.333-.835s1.081.323 1.333.835l8.941 18.127c.368.747.07 1.653-.666 2.027-.736.372-1.631.07-1.999-.676L18.121 19.74l-7.607 15.425c-.262.529-.788.835-1.334.835z"/><path fill="#58595B" d="M18.121 20.392c-.263 0-.516-.106-.702-.295L3.512 5.998c-.388-.394-.388-1.031 0-1.424s1.017-.393 1.404 0L18.121 17.96 31.324 4.573c.389-.393 1.017-.393 1.405 0 .388.394.388 1.031 0 1.424l-13.905 14.1c-.187.188-.439.295-.703.295z"/><path fill="#DD2E44" d="M34.015 19.385c0 8.898-7.115 16.111-15.894 16.111-8.777 0-15.893-7.213-15.893-16.111 0-8.9 7.116-16.113 15.893-16.113 8.778-.001 15.894 7.213 15.894 16.113z"/><path fill="#E6E7E8" d="M30.041 19.385c0 6.674-5.335 12.084-11.92 12.084-6.583 0-11.919-5.41-11.919-12.084C6.202 12.71 11.538 7.3 18.121 7.3c6.585-.001 11.92 5.41 11.92 12.085z"/><path fill="#FFCC4D" d="M30.04 1.257c-1.646 0-3.135.676-4.214 1.77l8.429 8.544C35.333 10.478 36 8.968 36 7.299c0-3.336-2.669-6.042-5.96-6.042zm-24.08 0c1.645 0 3.135.676 4.214 1.77l-8.429 8.544C.667 10.478 0 8.968 0 7.299c0-3.336 2.668-6.042 5.96-6.042z"/><path fill="#414042" d="M23 20h-5c-.552 0-1-.447-1-1v-9c0-.552.448-1 1-1s1 .448 1 1v8h4c.553 0 1 .448 1 1 0 .553-.447 1-1 1z"/></svg>
<text x="160" y="332.14" text-anchor="middle" font-size="21" fill="#0f172a" font-weight="700">4 時間弱</text>
<svg x="566.0" y="156.3" width="88.0" height="88.0" viewBox="0 0 36 36"><path fill="#BDDDF4" d="M18 1C8.059 1 0 7.268 0 15c0 4.368 2.574 8.268 6.604 10.835C6.08 28.144 4.859 31.569 2 35c5.758-.96 9.439-3.761 11.716-6.416 1.376.262 2.805.416 4.284.416 9.941 0 18-6.268 18-14S27.941 1 18 1z"/><circle fill="#2A6797" cx="18" cy="15" r="2"/><circle fill="#2A6797" cx="26" cy="15" r="2"/><circle fill="#2A6797" cx="10" cy="15" r="2"/></svg>
<text x="610" y="271.14" text-anchor="middle" font-size="21" fill="#0f172a" font-weight="700">題材を決める</text>
<path d="M220.54 158.74 L292.49 169.14" fill="none" stroke="#475569" stroke-width="3.5" stroke-linecap="round" stroke-linejoin="round"/>
<path d="M466.59 194.29 L538.54 204.68" fill="none" stroke="#475569" stroke-width="3.5" stroke-linecap="round" stroke-linejoin="round" marker-end="url(#aR)"/>
<text x="379.54" y="187.661" text-anchor="middle" font-size="17" fill="#0f172a" font-weight="600">体験してほしいこと</text>
<path d="M207.87 273.09 L329.45 255.52" fill="none" stroke="#475569" stroke-width="3.5" stroke-linecap="round" stroke-linejoin="round"/>
<path d="M416.96 242.88 L538.54 225.32" fill="none" stroke="#475569" stroke-width="3.5" stroke-linecap="round" stroke-linejoin="round" marker-end="url(#aR)"/>
<text x="373.206" y="255.154" text-anchor="middle" font-size="17" fill="#0f172a" font-weight="600">守る条件</text>
<text x="420" y="370" text-anchor="middle" font-size="13" fill="#475569" font-weight="400">決まっているのは条件だけ。作るものは、これから決める</text>
</svg>
