<svg xmlns="http://www.w3.org/2000/svg" width="960" height="440" viewBox="0 0 960 440" font-family="'Hiragino Sans','Noto Sans JP','Yu Gothic','Segoe UI',sans-serif">
<defs><marker id="aR" viewBox="0 0 10 10" refX="9" refY="5" markerWidth="7" markerHeight="7" orient="auto-start-reverse"><path d="M0 1 L9 5 L0 9 z" fill="#475569"/></marker><marker id="aRsub" viewBox="0 0 10 10" refX="9" refY="5" markerWidth="7" markerHeight="7" orient="auto-start-reverse"><path d="M0 1 L9 5 L0 9 z" fill="#94a3b8"/></marker></defs>
<rect x="0" y="0" width="960" height="440" fill="#ffffff"/>
<text x="480" y="48" text-anchor="middle" font-size="26" fill="#0f172a" font-weight="700">URL は人間用の名前。届け先は番号</text>
<svg x="120.0" y="230.3" width="80.0" height="80.0" viewBox="0 0 36 36"><path fill="#3B88C3" d="M18 0C8.059 0 0 8.059 0 18s8.059 18 18 18 18-8.059 18-18S27.941 0 18 0zM2.05 19h3.983c.092 2.506.522 4.871 1.229 7H4.158c-1.207-2.083-1.95-4.459-2.108-7zM19 8V2.081c2.747.436 5.162 2.655 6.799 5.919H19zm7.651 2c.754 2.083 1.219 4.46 1.317 7H19v-7h7.651zM17 2.081V8h-6.799C11.837 4.736 14.253 2.517 17 2.081zM17 10v7H8.032c.098-2.54.563-4.917 1.317-7H17zM6.034 17H2.05c.158-2.54.901-4.917 2.107-7h3.104c-.705 2.129-1.135 4.495-1.227 7zm1.998 2H17v7H9.349c-.754-2.083-1.219-4.459-1.317-7zM17 28v5.919c-2.747-.437-5.163-2.655-6.799-5.919H17zm2 5.919V28h6.8c-1.637 3.264-4.053 5.482-6.8 5.919zM19 26v-7h8.969c-.099 2.541-.563 4.917-1.317 7H19zm10.967-7h3.982c-.157 2.541-.9 4.917-2.107 7h-3.104c.706-2.129 1.136-4.494 1.229-7zm0-2c-.093-2.505-.523-4.871-1.229-7h3.104c1.207 2.083 1.95 4.46 2.107 7h-3.982zm.512-9h-2.503c-.717-1.604-1.606-3.015-2.619-4.199C27.346 4.833 29.089 6.267 30.479 8zM10.643 3.801C9.629 4.985 8.74 6.396 8.023 8H5.521c1.39-1.733 3.133-3.166 5.122-4.199zM5.521 28h2.503c.716 1.604 1.605 3.015 2.619 4.198C8.654 31.166 6.911 29.733 5.521 28zm19.836 4.198c1.014-1.184 1.902-2.594 2.619-4.198h2.503c-1.39 1.733-3.133 3.166-5.122 4.198z"/></svg>
<text x="160" y="337.14" text-anchor="middle" font-size="21" fill="#0f172a" font-weight="700">ブラウザ</text>
<svg x="440.0" y="65.3" width="80.0" height="80.0" viewBox="0 0 36 36"><path fill="#F4900C" d="M36 26c0 2.209-1.791 4-4 4H8c-2.209 0-4-1.791-4-4V6.313C4 4.104 9.791 0 12 0h18.625C33.719 0 36 2.312 36 5.375V26z"/><path fill="#CCD6DD" d="M34 30c0 2.209-1.791 4-4 4H10c-2.209 0-4-1.791-4-4V6c0-4.119-.021-4 5-4h19c2.209 0 4 1.791 4 4v24z"/><path fill="#E1E8ED" d="M32 31c0 1.657-1.343 3-3 3H7c-1.657 0-3-1.343-3-3V7c0-1.657 1.343-3 3-3h22c1.657 0 3 1.343 3 3v24z"/><path fill="#FFAC33" d="M32 32c0 2.209-1.791 4-4 4H9c-2.209 0-4-1.791-4-4V10c0-2.209 1.791-4 4-4h19c2.209 0 4 1.791 4 4v22z"/><path fill="#FFCC4D" d="M30 32c0 2.209-1.791 4-4 4H9c-2.209 0-4-1.791-4-4V12c0-2.209 1.791-4 4-4h17.335C28.544 8 30 9.456 30 11.665V32z"/><path fill="#F4900C" d="M9 6C7.312 6 7.269 4.078 8 3.25 8.832 2.309 10.125 2 12.438 2H14V0h-2.719C7.312 0 4 2.5 4 5.375V32c0 2.209 1.791 4 4 4h2V6H9z"/><path fill="#662113" d="M8.542 32.979c0 .702-.667 1.271-1.49 1.271-.822 0-1.489-.569-1.489-1.271 0-.701.667-1.271 1.489-1.271.823 0 1.49.569 1.49 1.271z"/><path fill="#66757F" d="M6.894 32.271c-.48.055-.792.375-1.017.729-.307.485-1.007 1-1.877 1-1.104 0-2-.671-2-1.5S2.896 31 4 31v-1.996C1.833 29.025.083 30.579.083 32.5c0 1.934 1.772 3.5 3.958 3.5 1.854 0 3.347-1.045 3.901-2.569.277-.759-.469-1.224-1.048-1.16z"/><path fill="#662113" d="M8.542 24.979c0 .702-.667 1.271-1.49 1.271-.822 0-1.489-.569-1.489-1.271 0-.701.667-1.271 1.489-1.271.823 0 1.49.569 1.49 1.271z"/><path fill="#66757F" d="M6.894 24.271c-.48.055-.792.375-1.017.729-.307.485-1.007 1-1.877 1-1.104 0-2-.671-2-1.5S2.896 23 4 23v-1.996C1.833 21.025.083 22.579.083 24.5c0 1.934 1.772 3.5 3.958 3.5 1.854 0 3.347-1.045 3.901-2.569.277-.759-.469-1.224-1.048-1.16z"/><path fill="#662113" d="M8.542 16.979c0 .702-.667 1.271-1.49 1.271-.822 0-1.489-.569-1.489-1.271 0-.701.667-1.271 1.489-1.271.823 0 1.49.569 1.49 1.271z"/><path fill="#66757F" d="M6.894 16.271c-.48.055-.792.375-1.017.729-.307.485-1.007 1-1.877 1-1.104 0-2-.671-2-1.5S2.896 15 4 15v-1.996C1.833 13.025.083 14.579.083 16.5c0 1.934 1.772 3.5 3.958 3.5 1.854 0 3.347-1.045 3.901-2.569.277-.759-.469-1.224-1.048-1.16z"/><path fill="#662113" d="M8.542 8.979c0 .702-.667 1.271-1.49 1.271-.822 0-1.489-.569-1.489-1.271 0-.701.667-1.271 1.489-1.271.823 0 1.49.569 1.49 1.271z"/><path fill="#66757F" d="M6.894 8.271c-.48.055-.792.375-1.017.729C5.57 9.485 4.87 10 4 10c-1.104 0-2-.671-2-1.5S2.896 7 4 7V5.004C1.834 5.024.083 6.579.083 8.5c0 1.934 1.772 3.5 3.958 3.5 1.854 0 3.347-1.045 3.901-2.569.277-.759-.469-1.224-1.048-1.16z"/></svg>
<text x="480" y="172.14" text-anchor="middle" font-size="21" fill="#0f172a" font-weight="700">DNS</text>
<svg x="760.0" y="230.3" width="80.0" height="80.0" viewBox="0 0 36 36"><path fill="#CCD6DD" d="M36 22c0 2.209-1.791 4-4 4H4c-2.209 0-4-1.791-4-4V4c0-2.209 1.791-4 4-4h28c2.209 0 4 1.791 4 4v18z"/><path fill="#5DADEC" d="M4 4h28v18H4z"/><path fill="#CCD6DD" d="M13 26h10v6H13z"/><path fill="#9AAAB4" d="M13 26h10v2H13z"/><path fill="#E1E8ED" d="M36 33c0-1.657-1.343-3-3-3H3c-1.657 0-3 1.343-3 3s1.343 3 3 3h30c1.657 0 3-1.343 3-3z"/><path fill="#F5F8FA" d="M3 32h2v2H3zm4 0h2v2H7zm4 0h2v2h-2zm4 0h2v2h-2zm4 0h2v2h-2zm4 0h2v2h-2zm4 0h2v2h-2zm4 0h2v2h-2z"/></svg>
<text x="800" y="337.14" text-anchor="middle" font-size="21" fill="#0f172a" font-weight="700">サーバー</text>
<path d="M203.61 228.76 L250.25 204.71" fill="none" stroke="#475569" stroke-width="3.5" stroke-linecap="round" stroke-linejoin="round"/>
<path d="M388.02 133.67 L434.67 109.62" fill="none" stroke="#475569" stroke-width="3.5" stroke-linecap="round" stroke-linejoin="round" marker-end="url(#aR)"/>
<text x="319.137" y="175.142" text-anchor="middle" font-size="17" fill="#0f172a" font-weight="600">example.com は？</text>
<path d="M438.48 175.16 L378.87 205.90" fill="none" stroke="#94a3b8" stroke-width="2.0" stroke-linecap="round" stroke-linejoin="round"/>
<path d="M268.62 262.75 L209.01 293.48" fill="none" stroke="#94a3b8" stroke-width="2.0" stroke-linecap="round" stroke-linejoin="round" marker-end="url(#aRsub)"/>
<text x="323.748" y="240.271" text-anchor="middle" font-size="17" fill="#475569" font-weight="600">93.184.216.34</text>
<path d="M209.68 285.00 L366.80 285.00" fill="none" stroke="#475569" stroke-width="3.5" stroke-linecap="round" stroke-linejoin="round"/>
<path d="M593.20 285.00 L750.32 285.00" fill="none" stroke="#475569" stroke-width="3.5" stroke-linecap="round" stroke-linejoin="round" marker-end="url(#aR)"/>
<text x="480" y="290.95" text-anchor="middle" font-size="17" fill="#0f172a" font-weight="600">93.184.216.34 の 443 番へ</text>
<text x="480" y="372" text-anchor="middle" font-size="21" fill="#0f172a" font-weight="700" font-family="'SFMono-Regular','Consolas','Noto Sans Mono','Courier New',monospace">https://example.com/  →  93.184.216.34:443</text>
<text x="480" y="416" text-anchor="middle" font-size="13" fill="#475569" font-weight="400">住所（IP アドレス）とポート番号がそろって、はじめて届け先になる</text>
</svg>
